<?xml version="1.0" standalone="no"?><svg xmlns="http://www.w3.org/2000/svg" viewBox="0 0 1440 320"><path fill="#80a0e4" fill-opacity="1" d="M0,256L18.5,250.7C36.9,245,74,235,111,208C147.7,181,185,139,222,138.7C258.5,139,295,181,332,208C369.2,235,406,245,443,234.7C480,224,517,192,554,176C590.8,160,628,160,665,176C701.5,192,738,224,775,245.3C812.3,267,849,277,886,256C923.1,235,960,181,997,154.7C1033.8,128,1071,128,1108,138.7C1144.6,149,1182,171,1218,181.3C1255.4,192,1292,192,1329,186.7C1366.2,181,1403,171,1422,165.3L1440,160L1440,320L1421.5,320C1403.1,320,1366,320,1329,320C1292.3,320,1255,320,1218,320C1181.5,320,1145,320,1108,320C1070.8,320,1034,320,997,320C960,320,923,320,886,320C849.2,320,812,320,775,320C738.5,320,702,320,665,320C627.7,320,591,320,554,320C516.9,320,480,320,443,320C406.2,320,369,320,332,320C295.4,320,258,320,222,320C184.6,320,148,320,111,320C73.8,320,37,320,18,320L0,320Z"></path></svg>